<svg xmlns="http://www.w3.org/2000/svg" xmlns:xlink="http://www.w3.org/1999/xlink" width="48" zoomAndPan="magnify" viewBox="0 0 36 36.000001" height="48" preserveAspectRatio="xMidYMid meet" version="1.0"><defs><clipPath id="c954798f4c"><path d="M 12.453125 10.507812 L 26.320312 10.507812 L 26.320312 24.371094 L 12.453125 24.371094 Z M 12.453125 10.507812 " clip-rule="nonzero"/></clipPath><clipPath id="ea354d08b7"><path d="M 20.261719 13 L 23.910156 13 L 23.910156 16.515625 L 20.261719 16.515625 Z M 20.261719 13 " clip-rule="nonzero"/></clipPath><clipPath id="3002a26a4d"><path d="M 23.84375 14.601562 C 23.84375 15.515625 23.734375 15.753906 23.597656 15.929688 C 23.457031 16.105469 23.253906 16.265625 23.050781 16.359375 C 22.84375 16.457031 22.589844 16.507812 22.363281 16.492188 C 22.136719 16.476562 21.890625 16.398438 21.699219 16.28125 C 21.503906 16.164062 21.320312 15.980469 21.203125 15.785156 C 21.085938 15.59375 21.007812 15.347656 20.992188 15.121094 C 20.976562 14.894531 21.027344 14.636719 21.125 14.433594 C 21.21875 14.230469 21.378906 14.027344 21.554688 13.886719 C 21.730469 13.75 21.96875 13.636719 22.1875 13.59375 C 22.414062 13.550781 22.671875 13.574219 22.890625 13.636719 C 23.101562 13.703125 23.480469 14.003906 23.480469 14.003906 " clip-rule="nonzero"/></clipPath><clipPath id="ba0d40aac4"><path d="M 20.976562 13.578125 L 23.894531 13.578125 L 23.894531 16.496094 L 20.976562 16.496094 Z M 20.976562 13.578125 " clip-rule="nonzero"/></clipPath></defs><g clip-path="url(#c954798f4c)"><path fill="#ff69b4" d="M 26.320312 17.441406 C 26.320312 17.894531 26.273438 18.347656 26.1875 18.792969 C 26.097656 19.238281 25.964844 19.671875 25.792969 20.09375 C 25.617188 20.515625 25.402344 20.914062 25.152344 21.292969 C 24.898438 21.671875 24.609375 22.019531 24.289062 22.34375 C 23.964844 22.664062 23.617188 22.953125 23.238281 23.203125 C 22.859375 23.457031 22.460938 23.671875 22.039062 23.84375 C 21.617188 24.019531 21.183594 24.152344 20.738281 24.238281 C 20.292969 24.328125 19.839844 24.371094 19.386719 24.371094 C 18.929688 24.371094 18.480469 24.328125 18.035156 24.238281 C 17.585938 24.152344 17.152344 24.019531 16.734375 23.84375 C 16.3125 23.671875 15.914062 23.457031 15.535156 23.203125 C 15.15625 22.953125 14.804688 22.664062 14.484375 22.34375 C 14.164062 22.019531 13.875 21.671875 13.621094 21.292969 C 13.371094 20.914062 13.15625 20.515625 12.980469 20.09375 C 12.808594 19.671875 12.675781 19.238281 12.585938 18.792969 C 12.5 18.347656 12.453125 17.894531 12.453125 17.441406 C 12.453125 16.984375 12.5 16.535156 12.585938 16.089844 C 12.675781 15.640625 12.808594 15.207031 12.980469 14.789062 C 13.15625 14.367188 13.371094 13.96875 13.621094 13.589844 C 13.875 13.210938 14.164062 12.859375 14.484375 12.539062 C 14.804688 12.214844 15.15625 11.929688 15.535156 11.675781 C 15.914062 11.421875 16.3125 11.210938 16.734375 11.035156 C 17.152344 10.863281 17.585938 10.730469 18.035156 10.640625 C 18.480469 10.550781 18.929688 10.507812 19.386719 10.507812 C 19.839844 10.507812 20.292969 10.550781 20.738281 10.640625 C 21.183594 10.730469 21.617188 10.863281 22.039062 11.035156 C 22.460938 11.210938 22.859375 11.421875 23.238281 11.675781 C 23.617188 11.929688 23.964844 12.214844 24.289062 12.539062 C 24.609375 12.859375 24.898438 13.210938 25.152344 13.589844 C 25.402344 13.96875 25.617188 14.367188 25.792969 14.789062 C 25.964844 15.207031 26.097656 15.640625 26.1875 16.089844 C 26.273438 16.535156 26.320312 16.984375 26.320312 17.441406 Z M 26.320312 17.441406 " fill-opacity="1" fill-rule="nonzero"/></g><path fill="#ffffff" d="M 15.574219 13.972656 C 15.382812 13.972656 15.226562 14.128906 15.226562 14.320312 C 15.226562 14.511719 15.382812 14.667969 15.574219 14.667969 Z M 16.34375 14.320312 L 16.683594 14.253906 C 16.652344 14.089844 16.507812 13.972656 16.34375 13.972656 Z M 16.15625 15.15625 C 16.195312 15.34375 16.378906 15.464844 16.566406 15.425781 C 16.753906 15.390625 16.875 15.207031 16.835938 15.019531 Z M 17.113281 17.804688 C 16.921875 17.804688 16.765625 17.960938 16.765625 18.152344 C 16.765625 18.34375 16.921875 18.5 17.113281 18.5 Z M 20.964844 18.152344 L 20.964844 18.5 C 21.097656 18.5 21.214844 18.425781 21.273438 18.308594 Z M 22.507812 15.085938 L 22.816406 15.242188 C 22.871094 15.136719 22.863281 15.007812 22.800781 14.90625 C 22.738281 14.804688 22.625 14.742188 22.507812 14.742188 Z M 16.496094 14.742188 C 16.304688 14.742188 16.152344 14.894531 16.152344 15.085938 C 16.152344 15.277344 16.304688 15.433594 16.496094 15.433594 Z M 16.773438 18.21875 C 16.8125 18.40625 16.996094 18.53125 17.183594 18.492188 C 17.371094 18.453125 17.492188 18.269531 17.453125 18.082031 Z M 16.835938 15.019531 C 16.800781 14.832031 16.617188 14.710938 16.429688 14.746094 C 16.242188 14.785156 16.121094 14.96875 16.15625 15.15625 Z M 17.359375 18.398438 C 17.496094 18.261719 17.496094 18.042969 17.359375 17.90625 C 17.226562 17.773438 17.003906 17.769531 16.871094 17.90625 Z M 16.230469 19.03125 L 15.988281 18.785156 Z M 20.964844 20.03125 C 21.15625 20.03125 21.3125 19.875 21.3125 19.683594 C 21.3125 19.492188 21.15625 19.335938 20.964844 19.335938 Z M 20.964844 19.683594 L 20.617188 19.683594 C 20.617188 19.777344 20.65625 19.863281 20.722656 19.929688 Z M 21.734375 20.449219 L 21.492188 20.695312 C 21.554688 20.761719 21.644531 20.796875 21.734375 20.796875 Z M 17.882812 20.449219 L 17.585938 20.277344 C 17.554688 20.328125 17.539062 20.390625 17.539062 20.449219 Z M 17.882812 21.21875 L 17.539062 21.21875 C 17.539062 21.277344 17.554688 21.339844 17.585938 21.390625 Z M 15.574219 14.667969 L 16.34375 14.667969 L 16.34375 13.972656 L 15.574219 13.972656 Z M 16.003906 14.390625 L 16.15625 15.15625 L 16.835938 15.019531 L 16.683594 14.253906 Z M 17.113281 18.5 L 20.964844 18.5 L 20.964844 17.804688 L 17.113281 17.804688 Z M 21.273438 18.308594 L 22.816406 15.242188 L 22.195312 14.929688 L 20.65625 17.996094 Z M 22.507812 14.742188 L 16.496094 14.742188 L 16.496094 15.433594 L 22.507812 15.433594 Z M 17.453125 18.082031 L 16.835938 15.019531 L 16.15625 15.15625 L 16.773438 18.21875 Z M 16.871094 17.90625 L 15.988281 18.785156 L 16.476562 19.277344 L 17.359375 18.398438 Z M 15.988281 18.785156 C 15.523438 19.246094 15.855469 20.03125 16.503906 20.03125 L 16.503906 19.335938 C 16.488281 19.335938 16.484375 19.335938 16.480469 19.332031 C 16.476562 19.328125 16.472656 19.324219 16.46875 19.316406 C 16.464844 19.304688 16.464844 19.296875 16.464844 19.292969 C 16.464844 19.292969 16.464844 19.285156 16.476562 19.277344 Z M 16.503906 20.03125 L 20.964844 20.03125 L 20.964844 19.335938 L 16.503906 19.335938 Z M 21.3125 19.683594 C 21.3125 19.453125 21.5 19.265625 21.734375 19.265625 L 21.734375 18.570312 C 21.121094 18.570312 20.617188 19.066406 20.617188 19.683594 Z M 21.734375 19.265625 C 21.972656 19.265625 22.160156 19.453125 22.160156 19.683594 L 22.851562 19.683594 C 22.851562 19.066406 22.351562 18.570312 21.734375 18.570312 Z M 22.160156 19.683594 C 22.160156 19.914062 21.972656 20.105469 21.734375 20.105469 L 21.734375 20.796875 C 22.351562 20.796875 22.851562 20.300781 22.851562 19.683594 Z M 21.980469 20.203125 L 21.210938 19.4375 L 20.722656 19.929688 L 21.492188 20.695312 Z M 18.183594 20.625 C 18.28125 20.460938 18.476562 20.378906 18.660156 20.429688 L 18.839844 19.757812 C 18.351562 19.628906 17.839844 19.839844 17.585938 20.277344 Z M 18.660156 20.429688 C 18.847656 20.476562 18.976562 20.644531 18.976562 20.832031 L 19.667969 20.832031 C 19.667969 20.328125 19.328125 19.886719 18.839844 19.757812 Z M 18.976562 20.832031 C 18.976562 21.023438 18.847656 21.1875 18.660156 21.238281 L 18.839844 21.910156 C 19.328125 21.777344 19.667969 21.339844 19.667969 20.832031 Z M 18.660156 21.238281 C 18.476562 21.289062 18.28125 21.207031 18.183594 21.042969 L 17.585938 21.390625 C 17.839844 21.828125 18.351562 22.039062 18.839844 21.910156 Z M 18.230469 21.21875 L 18.230469 20.449219 L 17.539062 20.449219 L 17.539062 21.21875 Z M 18.230469 21.21875 " fill-opacity="1" fill-rule="nonzero"/><path fill="#ffffff" d="M 24.585938 15.015625 C 24.585938 15.289062 24.53125 15.554688 24.425781 15.808594 C 24.320312 16.066406 24.171875 16.289062 23.976562 16.484375 C 23.78125 16.679688 23.558594 16.828125 23.300781 16.9375 C 23.046875 17.042969 22.78125 17.09375 22.507812 17.09375 C 22.230469 17.09375 21.964844 17.042969 21.710938 16.9375 C 21.457031 16.828125 21.230469 16.679688 21.035156 16.484375 C 20.839844 16.289062 20.691406 16.066406 20.585938 15.808594 C 20.480469 15.554688 20.425781 15.289062 20.425781 15.015625 C 20.425781 14.738281 20.480469 14.472656 20.585938 14.21875 C 20.691406 13.964844 20.839844 13.738281 21.035156 13.542969 C 21.230469 13.347656 21.457031 13.199219 21.710938 13.09375 C 21.964844 12.988281 22.230469 12.933594 22.507812 12.933594 C 22.78125 12.933594 23.046875 12.988281 23.300781 13.09375 C 23.558594 13.199219 23.78125 13.347656 23.976562 13.542969 C 24.171875 13.738281 24.320312 13.964844 24.425781 14.21875 C 24.53125 14.472656 24.585938 14.738281 24.585938 15.015625 Z M 24.585938 15.015625 " fill-opacity="1" fill-rule="nonzero"/><path stroke-linecap="butt" transform="matrix(0.346622, 0, 0, 0.346622, 12.454053, 10.50811)" fill-opacity="1" fill="#ff69b4" fill-rule="nonzero" stroke-linejoin="miter" d="M 31.529364 12.530819 L 29.478316 12.530819 L 29.478316 10.468501 C 29.478316 10.209303 29.264196 9.995183 29.004997 9.995183 C 28.745799 9.995183 28.531679 10.209303 28.531679 10.468501 L 28.531679 12.530819 L 26.469361 12.530819 C 26.210163 12.530819 25.996043 12.733669 25.996043 13.004137 C 25.996043 13.128102 26.05239 13.240797 26.142546 13.330953 C 26.232702 13.421109 26.345397 13.477456 26.469361 13.477456 L 28.531679 13.477456 L 28.531679 15.528504 C 28.531679 15.663738 28.576757 15.776433 28.666913 15.866589 C 28.757069 15.945475 28.869763 16.001823 29.004997 16.001823 C 29.264196 16.001823 29.478316 15.787702 29.478316 15.528504 L 29.478316 13.477456 L 31.529364 13.477456 C 31.788562 13.477456 32.002683 13.263336 32.002683 13.004137 C 32.002683 12.744939 31.788562 12.530819 31.529364 12.530819 Z M 31.529364 12.530819 " stroke="#acd9b2" stroke-width="1" stroke-opacity="1" stroke-miterlimit="4"/><g clip-path="url(#ea354d08b7)"><g clip-path="url(#3002a26a4d)"><path fill="#ffffff" d="M 18.074219 10.675781 L 26.828125 10.675781 L 26.828125 19.433594 L 18.074219 19.433594 Z M 18.074219 10.675781 " fill-opacity="1" fill-rule="nonzero"/></g></g><g clip-path="url(#ba0d40aac4)"><path fill="#ff69b4" d="M 23.621094 14.765625 L 22.707031 14.765625 L 22.707031 13.851562 C 22.707031 13.699219 22.585938 13.578125 22.433594 13.578125 C 22.285156 13.578125 22.160156 13.699219 22.160156 13.851562 L 22.160156 14.765625 L 21.25 14.765625 C 21.097656 14.765625 20.976562 14.886719 20.976562 15.039062 C 20.976562 15.1875 21.097656 15.3125 21.25 15.3125 L 22.160156 15.3125 L 22.160156 16.222656 C 22.160156 16.375 22.285156 16.496094 22.433594 16.496094 C 22.585938 16.496094 22.707031 16.375 22.707031 16.222656 L 22.707031 15.3125 L 23.621094 15.3125 C 23.773438 15.3125 23.894531 15.1875 23.894531 15.039062 C 23.894531 14.886719 23.773438 14.765625 23.621094 14.765625 Z M 23.621094 14.765625 " fill-opacity="1" fill-rule="nonzero"/></g></svg>