<svg xmlns="http://www.w3.org/2000/svg" xmlns:xlink="http://www.w3.org/1999/xlink" width="375" zoomAndPan="magnify" viewBox="0 0 281.25 281.249989" height="375" preserveAspectRatio="xMidYMid meet" version="1.0"><defs><clipPath id="d9c858731b"><path d="M 84.152344 104.144531 L 196.351562 104.144531 L 196.351562 176.699219 L 84.152344 176.699219 Z M 84.152344 104.144531 " clip-rule="nonzero"/></clipPath></defs><g clip-path="url(#d9c858731b)"><path fill="#ff66c4" d="M 190.628906 104.144531 L 89.875 104.144531 C 86.761719 104.144531 84.230469 106.6875 84.230469 109.816406 L 84.230469 170.789062 C 84.230469 173.917969 86.761719 176.460938 89.875 176.460938 L 190.628906 176.460938 C 193.742188 176.460938 196.273438 173.917969 196.273438 170.789062 L 196.273438 109.816406 C 196.273438 106.6875 193.742188 104.144531 190.628906 104.144531 Z M 140.183594 108.394531 L 188.503906 108.394531 L 140.25 145.964844 L 91.996094 108.394531 Z M 190.628906 172.207031 C 191.40625 172.207031 192.039062 171.570312 192.039062 170.789062 L 192.039062 111.402344 L 154.1875 140.871094 L 180.425781 161.335938 L 180.40625 161.351562 C 180.824219 161.773438 181.078125 162.351562 181.078125 162.988281 C 181.078125 164.277344 180.042969 165.316406 178.765625 165.316406 C 178.128906 165.316406 177.554688 165.058594 177.136719 164.640625 L 177.132812 164.644531 L 150.484375 143.757812 L 142.492188 149.976562 C 141.894531 150.507812 141.117188 150.84375 140.25 150.84375 C 139.382812 150.84375 138.605469 150.507812 138.003906 149.976562 L 130.015625 143.757812 L 103.367188 164.644531 L 103.363281 164.640625 C 102.945312 165.058594 102.371094 165.316406 101.734375 165.316406 C 100.457031 165.316406 99.421875 164.277344 99.421875 162.988281 C 99.421875 162.351562 99.679688 161.773438 100.09375 161.351562 L 100.074219 161.335938 L 126.3125 140.871094 L 88.460938 111.402344 L 88.460938 170.789062 C 88.460938 171.570312 89.09375 172.207031 89.875 172.207031 Z M 190.628906 172.207031 " fill-opacity="1" fill-rule="evenodd"/></g></svg>