<svg xmlns="http://www.w3.org/2000/svg" xmlns:xlink="http://www.w3.org/1999/xlink" width="500" zoomAndPan="magnify" viewBox="0 0 375 374.999991" height="500" preserveAspectRatio="xMidYMid meet" version="1.0"><defs><clipPath id="a09d701599"><path d="M 20.058594 188.308594 L 303.855469 188.308594 L 303.855469 300.808594 L 20.058594 300.808594 Z M 20.058594 188.308594 " clip-rule="nonzero"/></clipPath><clipPath id="b8b5e80bf5"><path d="M 32.058594 200.308594 L 315.855469 200.308594 L 315.855469 312.808594 L 32.058594 312.808594 Z M 32.058594 200.308594 " clip-rule="nonzero"/></clipPath><clipPath id="66352c58cf"><path d="M 116 167 L 171 167 L 171 228.847656 L 116 228.847656 Z M 116 167 " clip-rule="nonzero"/></clipPath><clipPath id="b341a836f9"><path d="M 121.691406 167.414062 C 127.742188 168.734375 129.894531 169.621094 131.582031 170.429688 C 133.050781 171.144531 134.183594 171.894531 135.570312 172.734375 C 137.125 173.671875 138.84375 174.675781 140.453125 175.800781 C 142.140625 176.976562 143.875 178.5 145.449219 179.683594 C 146.820312 180.71875 148.050781 181.628906 149.363281 182.542969 C 150.640625 183.433594 151.960938 184.117188 153.210938 185.101562 C 154.546875 186.152344 155.859375 187.417969 157.113281 188.679688 C 158.386719 189.953125 159.730469 191.257812 160.785156 192.714844 C 161.835938 194.152344 162.542969 195.78125 163.441406 197.339844 C 164.371094 198.9375 165.511719 200.476562 166.277344 202.191406 C 167.058594 203.941406 167.558594 205.914062 168.070312 207.75 C 168.558594 209.511719 168.933594 211.230469 169.285156 212.984375 C 169.636719 214.726562 169.863281 216.652344 170.167969 218.234375 C 170.425781 219.554688 170.867188 220.839844 170.949219 221.84375 C 171.007812 222.546875 170.988281 223.082031 170.859375 223.671875 C 170.730469 224.257812 170.492188 224.859375 170.183594 225.375 C 169.878906 225.894531 169.464844 226.378906 169.007812 226.769531 C 168.550781 227.160156 168.003906 227.496094 167.441406 227.722656 C 166.882812 227.949219 166.253906 228.089844 165.65625 228.128906 C 165.054688 228.164062 164.417969 228.089844 163.832031 227.933594 C 163.253906 227.777344 162.667969 227.503906 162.167969 227.167969 C 161.664062 226.832031 161.199219 226.394531 160.832031 225.914062 C 160.464844 225.433594 160.164062 224.871094 159.96875 224.304688 C 159.773438 223.734375 159.667969 223.09375 159.667969 222.496094 C 159.667969 221.894531 159.765625 221.257812 159.953125 220.6875 C 160.140625 220.117188 160.449219 219.546875 160.808594 219.066406 C 161.167969 218.589844 161.632812 218.136719 162.128906 217.800781 C 162.625 217.464844 163.21875 217.191406 163.792969 217.027344 C 164.371094 216.863281 165.007812 216.789062 165.609375 216.816406 C 166.210938 216.847656 166.839844 216.984375 167.402344 217.207031 C 167.964844 217.425781 168.519531 217.753906 168.976562 218.144531 C 169.433594 218.535156 169.847656 219.023438 170.160156 219.539062 C 170.476562 220.058594 170.71875 220.652344 170.851562 221.234375 C 170.988281 221.820312 171.015625 222.464844 170.957031 223.066406 C 170.898438 223.664062 170.722656 224.289062 170.46875 224.835938 C 170.222656 225.382812 169.863281 225.914062 169.449219 226.351562 C 169.035156 226.792969 168.527344 227.183594 167.996094 227.46875 C 167.460938 227.753906 166.855469 227.957031 166.261719 228.054688 C 165.667969 228.152344 165.023438 228.15625 164.433594 228.058594 C 163.839844 227.964844 163.222656 227.761719 162.691406 227.484375 C 162.160156 227.207031 161.640625 226.816406 161.230469 226.378906 C 160.808594 225.945312 160.449219 225.414062 160.195312 224.867188 C 159.941406 224.316406 159.707031 223.101562 159.699219 223.101562 C 159.699219 223.101562 159.699219 223.109375 159.699219 223.109375 C 159.691406 223.109375 159.203125 218.867188 158.808594 217.011719 C 158.46875 215.429688 157.945312 214.199219 157.585938 212.671875 C 157.1875 210.992188 157.171875 209.019531 156.558594 207.316406 C 155.925781 205.589844 154.757812 204.007812 153.828125 202.410156 C 152.917969 200.851562 152.191406 199.277344 151.050781 197.84375 C 149.820312 196.304688 148.113281 194.769531 146.621094 193.539062 C 145.285156 192.441406 143.972656 191.730469 142.578125 190.734375 C 141.039062 189.628906 139.351562 188.492188 137.785156 187.191406 C 136.128906 185.828125 134.476562 183.976562 132.902344 182.714844 C 131.566406 181.644531 130.40625 180.839844 129.007812 180 C 127.523438 179.101562 125.820312 178.058594 124.230469 177.527344 C 122.816406 177.046875 120.941406 177.007812 119.988281 176.78125 C 119.492188 176.664062 119.230469 176.601562 118.882812 176.445312 C 118.539062 176.289062 118.203125 176.085938 117.902344 175.851562 C 117.601562 175.621094 117.324219 175.34375 117.09375 175.042969 C 116.859375 174.742188 116.65625 174.40625 116.5 174.058594 C 116.34375 173.714844 116.222656 173.339844 116.15625 172.964844 C 116.085938 172.589844 116.066406 172.199219 116.085938 171.816406 C 116.109375 171.433594 116.175781 171.046875 116.289062 170.683594 C 116.402344 170.324219 116.566406 169.964844 116.761719 169.644531 C 116.957031 169.320312 117.195312 169.003906 117.46875 168.734375 C 117.738281 168.464844 118.042969 168.226562 118.367188 168.03125 C 118.691406 167.835938 119.058594 167.671875 119.417969 167.558594 C 119.777344 167.445312 120.167969 167.371094 120.542969 167.347656 C 120.925781 167.324219 121.691406 167.414062 121.691406 167.414062 " clip-rule="nonzero"/></clipPath><clipPath id="a6c6fa9c86"><path d="M 55.023438 152 L 151 152 L 151 240 L 55.023438 240 Z M 55.023438 152 " clip-rule="nonzero"/></clipPath><clipPath id="344ec53644"><path d="M 91.53125 168.96875 C 84.203125 168.617188 82.570312 168.542969 80.84375 168.558594 C 79.066406 168.570312 77.242188 168.542969 75.4375 168.804688 C 73.5625 169.082031 71.507812 169.488281 69.804688 170.222656 C 68.199219 170.910156 65.882812 171.722656 65.460938 172.988281 C 65.042969 174.265625 66.59375 176.347656 67.34375 177.871094 C 68.054688 179.328125 68.867188 180.570312 69.804688 181.945312 C 70.839844 183.460938 72.179688 184.988281 73.359375 186.527344 C 74.535156 188.066406 75.652344 189.527344 76.875 191.175781 C 78.257812 193.03125 79.914062 195.097656 81.203125 197.132812 C 82.449219 199.097656 83.527344 201.078125 84.503906 203.175781 C 85.5 205.328125 86.339844 207.578125 87.089844 209.90625 C 87.871094 212.3125 88.449219 215.035156 89.078125 217.382812 C 89.640625 219.480469 90.070312 221.445312 90.707031 223.335938 C 91.304688 225.121094 91.882812 228.324219 92.753906 228.453125 C 93.542969 228.570312 94.523438 226.148438 95.589844 224.925781 C 96.828125 223.507812 98.335938 221.980469 99.789062 220.503906 C 101.3125 218.957031 102.878906 217.507812 104.542969 215.84375 C 106.425781 213.96875 108.820312 211.507812 110.492188 209.800781 C 111.714844 208.546875 112.449219 207.8125 113.65625 206.523438 C 115.335938 204.730469 117.894531 201.863281 119.574219 200.019531 C 120.820312 198.65625 121.6875 197.761719 122.8125 196.441406 C 124.132812 194.898438 125.6875 192.984375 126.96875 191.289062 C 128.160156 189.714844 129.242188 188.140625 130.269531 186.609375 C 131.230469 185.175781 132.152344 183.84375 132.953125 182.378906 C 133.757812 180.925781 135.554688 178.675781 135.070312 177.863281 C 134.566406 177.023438 131.566406 177.863281 129.742188 177.566406 C 127.742188 177.234375 125.527344 176.3125 123.554688 175.832031 C 121.777344 175.398438 120.234375 175.074219 118.449219 174.765625 C 116.507812 174.429688 114.242188 174.097656 112.335938 173.933594 C 110.6875 173.792969 109.285156 173.828125 107.6875 173.753906 C 105.992188 173.671875 104.3125 173.574219 102.460938 173.453125 C 100.359375 173.3125 97.867188 173.050781 95.738281 172.953125 C 93.8125 172.863281 92.035156 172.871094 90.210938 172.855469 C 88.433594 172.839844 86.6875 172.675781 84.9375 172.871094 C 83.152344 173.070312 81.257812 173.523438 79.613281 174.070312 C 78.113281 174.570312 76.621094 175.410156 75.460938 175.9375 C 74.617188 176.320312 73.921875 176.65625 73.285156 176.917969 C 72.796875 177.113281 72.429688 177.285156 71.980469 177.390625 C 71.527344 177.496094 71.050781 177.550781 70.589844 177.542969 C 70.132812 177.535156 69.660156 177.472656 69.21875 177.355469 C 68.777344 177.234375 68.328125 177.054688 67.921875 176.835938 C 67.515625 176.621094 67.125 176.34375 66.789062 176.035156 C 66.453125 175.726562 66.136719 175.359375 65.882812 174.976562 C 65.625 174.59375 65.410156 174.175781 65.25 173.738281 C 65.09375 173.304688 64.980469 172.839844 64.9375 172.382812 C 64.890625 171.925781 64.898438 171.453125 64.960938 170.996094 C 65.019531 170.535156 65.140625 170.070312 65.3125 169.644531 C 65.484375 169.21875 65.710938 168.796875 65.980469 168.421875 C 66.25 168.046875 66.5625 167.695312 66.917969 167.394531 C 67.261719 167.09375 67.5 166.773438 68.070312 166.621094 C 69.21875 166.308594 71.875 166.9375 73.773438 166.96875 C 75.652344 166.996094 77.5 166.808594 79.402344 166.785156 C 81.363281 166.765625 83.378906 166.882812 85.359375 166.839844 C 87.324219 166.792969 89.175781 166.660156 91.230469 166.507812 C 93.511719 166.34375 96.113281 166.15625 98.445312 165.863281 C 100.660156 165.585938 102.742188 165.28125 104.875 164.820312 C 107.019531 164.363281 109.097656 163.703125 111.277344 163.105469 C 113.558594 162.472656 115.988281 161.820312 118.277344 161.132812 C 120.496094 160.464844 122.761719 159.746094 124.800781 159.03125 C 126.632812 158.394531 128.3125 157.695312 129.96875 157.082031 C 131.5 156.511719 132.863281 156.085938 134.402344 155.46875 C 136.105469 154.785156 138.355469 153.746094 139.734375 153.144531 C 140.605469 152.761719 141.285156 152.386719 141.871094 152.214844 C 142.261719 152.101562 142.53125 152.066406 142.867188 152.050781 C 143.207031 152.035156 143.550781 152.066406 143.882812 152.132812 C 144.210938 152.199219 144.542969 152.304688 144.839844 152.445312 C 145.140625 152.589844 145.433594 152.777344 145.695312 152.988281 C 145.960938 153.195312 146.199219 153.453125 146.402344 153.722656 C 146.605469 153.992188 146.777344 154.285156 146.902344 154.59375 C 147.039062 154.898438 147.136719 155.238281 147.1875 155.566406 C 147.242188 155.898438 147.257812 156.242188 147.226562 156.578125 C 147.195312 156.910156 147.136719 157.253906 147.03125 157.570312 C 146.925781 157.882812 146.777344 158.199219 146.597656 158.484375 C 146.417969 158.769531 146.191406 159.039062 145.953125 159.273438 C 145.710938 159.503906 145.441406 159.714844 145.148438 159.878906 C 144.855469 160.042969 144.691406 160.15625 144.210938 160.277344 C 142.890625 160.605469 138.789062 160.726562 136.472656 160.929688 C 134.589844 161.09375 133.082031 161.230469 131.339844 161.386719 C 129.550781 161.542969 127.675781 161.671875 125.882812 161.867188 C 124.140625 162.054688 122.425781 162.292969 120.75 162.542969 C 119.132812 162.78125 117.5625 163.058594 115.988281 163.328125 C 114.429688 163.597656 113.101562 163.75 111.339844 164.167969 C 108.953125 164.730469 105.300781 165.730469 103.023438 166.621094 C 101.335938 167.28125 100.230469 167.933594 98.761719 168.714844 C 97.132812 169.578125 95.550781 170.484375 93.699219 171.585938 C 91.390625 172.96875 88.410156 174.746094 86.003906 176.402344 C 83.746094 177.953125 81.503906 179.597656 79.636719 181.195312 C 78.023438 182.574219 76.785156 183.886719 75.363281 185.34375 C 73.867188 186.871094 70.597656 189.09375 70.882812 190.179688 C 71.140625 191.167969 74.980469 190.667969 76.050781 191.859375 C 77.167969 193.097656 77.054688 195.757812 77.289062 197.628906 C 77.507812 199.359375 77.371094 200.964844 77.484375 202.675781 C 77.597656 204.453125 77.703125 206.371094 77.980469 208.097656 C 78.234375 209.703125 78.144531 212.101562 79.035156 212.695312 C 79.816406 213.210938 81.730469 212.078125 82.628906 212.070312 C 83.167969 212.066406 83.5 212.15625 83.917969 212.265625 C 84.339844 212.378906 84.75 212.550781 85.132812 212.761719 C 85.507812 212.972656 85.875 213.242188 86.191406 213.535156 C 86.507812 213.835938 86.800781 214.179688 87.03125 214.539062 C 87.273438 214.90625 87.464844 215.304688 87.609375 215.71875 C 87.75 216.121094 87.847656 216.566406 87.886719 216.992188 C 87.925781 217.417969 87.917969 217.871094 87.847656 218.296875 C 87.78125 218.722656 87.660156 219.160156 87.496094 219.566406 C 87.332031 219.960938 87.113281 220.351562 86.859375 220.703125 C 86.605469 221.050781 86.296875 221.378906 85.964844 221.65625 C 85.636719 221.933594 85.261719 222.183594 84.871094 222.371094 C 84.480469 222.566406 84.0625 222.714844 83.632812 222.804688 C 83.214844 222.894531 82.875 223.066406 82.328125 222.925781 C 81.152344 222.617188 78.609375 220.847656 77.273438 219.46875 C 76.035156 218.183594 75.367188 216.609375 74.445312 215.035156 C 73.433594 213.316406 72.398438 211.359375 71.476562 209.523438 C 70.585938 207.746094 69.742188 206.011719 68.992188 204.195312 C 68.238281 202.375 67.5 200.441406 66.945312 198.617188 C 66.429688 196.921875 66.648438 194.140625 65.714844 193.613281 C 64.953125 193.179688 63.21875 194.648438 62.371094 194.628906 C 61.839844 194.613281 61.492188 194.371094 61.089844 194.167969 C 60.683594 193.96875 60.292969 193.71875 59.949219 193.425781 C 59.605469 193.132812 59.289062 192.796875 59.027344 192.429688 C 58.765625 192.0625 58.539062 191.65625 58.367188 191.238281 C 58.203125 190.816406 58.074219 190.367188 58.015625 189.925781 C 57.953125 189.480469 57.9375 189.015625 57.984375 188.566406 C 58.027344 188.117188 58.125 187.667969 58.277344 187.238281 C 58.425781 186.8125 58.636719 186.390625 58.882812 186.015625 C 59.132812 185.640625 59.429688 185.289062 59.761719 184.980469 C 60.089844 184.675781 60.472656 184.40625 60.863281 184.1875 C 61.261719 183.96875 61.6875 183.796875 62.125 183.675781 C 62.558594 183.558594 63.023438 183.488281 63.472656 183.480469 C 63.925781 183.472656 64.300781 183.40625 64.824219 183.617188 C 65.8125 184.007812 67.15625 185.542969 68.625 186.496094 C 70.425781 187.660156 72.839844 188.628906 74.917969 189.945312 C 77.132812 191.347656 79.480469 192.976562 81.503906 194.730469 C 83.492188 196.457031 85.285156 198.332031 86.964844 200.378906 C 88.695312 202.488281 90.234375 204.835938 91.71875 207.234375 C 93.25 209.710938 94.726562 212.671875 95.980469 215.027344 C 97.007812 216.953125 99 218.910156 98.710938 220.328125 C 98.453125 221.566406 95.597656 223.507812 95.167969 223.230469 C 94.675781 222.917969 95.925781 219.332031 96.707031 217.269531 C 97.621094 214.855469 99.085938 212.183594 100.546875 209.710938 C 102.070312 207.144531 104.152344 204.191406 105.714844 202.164062 C 106.847656 200.695312 107.792969 199.703125 108.863281 198.519531 C 109.929688 197.347656 110.949219 196.261719 112.117188 195.105469 C 113.410156 193.832031 114.945312 192.398438 116.304688 191.199219 C 117.535156 190.113281 118.578125 189.28125 119.910156 188.175781 C 121.554688 186.820312 123.625 185.125 125.445312 183.65625 C 127.203125 182.238281 128.957031 180.828125 130.636719 179.523438 C 132.195312 178.308594 133.75 177.191406 135.203125 176.066406 C 136.554688 175.023438 137.902344 174.121094 139.097656 173.019531 C 140.25 171.945312 141.398438 169.398438 142.261719 169.5625 C 143.25 169.75 145.097656 174.097656 144.488281 175.292969 C 143.910156 176.433594 140.902344 176.378906 139.058594 176.738281 C 137.191406 177.105469 135.363281 176.941406 133.335938 177.460938 C 130.875 178.089844 128.011719 179.328125 125.417969 180.578125 C 122.730469 181.878906 120.039062 183.617188 117.503906 185.140625 C 115.105469 186.578125 112.539062 188.199219 110.589844 189.480469 C 109.125 190.449219 107.988281 191.132812 106.808594 192.097656 C 105.632812 193.058594 104.117188 193.929688 103.515625 195.257812 C 102.878906 196.660156 102.511719 199.375 103.300781 200.386719 C 104.054688 201.363281 106.695312 201.902344 107.964844 201.371094 C 109.375 200.785156 110.152344 198.097656 111.144531 196.449219 C 112.105469 194.851562 112.996094 193.238281 113.84375 191.632812 C 114.667969 190.082031 115.425781 188.605469 116.160156 186.976562 C 116.941406 185.253906 117.554688 183.316406 118.351562 181.539062 C 119.148438 179.777344 120.085938 178.035156 120.925781 176.347656 C 121.726562 174.746094 121.882812 172.683594 123.273438 171.648438 C 124.996094 170.355469 129.648438 169.148438 131.273438 170.230469 C 132.878906 171.292969 133.269531 175.570312 133.042969 177.976562 C 132.835938 180.203125 131.320312 182.183594 130.328125 184.203125 C 129.347656 186.203125 128.199219 188.304688 127.125 190.050781 C 126.203125 191.550781 125.582031 192.820312 124.351562 194.109375 C 122.835938 195.699219 120.179688 197.253906 118.398438 198.585938 C 116.949219 199.675781 115.785156 200.492188 114.453125 201.527344 C 113.027344 202.628906 111.714844 203.925781 110.101562 205.007812 C 108.332031 206.199219 106.269531 207.746094 104.207031 208.285156 C 102.234375 208.800781 99.929688 208.320312 98.019531 208.320312 C 96.363281 208.320312 95.042969 208.328125 93.367188 208.308594 C 91.417969 208.285156 88.945312 208.410156 87.015625 208.164062 C 85.359375 207.945312 84.007812 207.566406 82.464844 207.078125 C 80.777344 206.550781 78.863281 205.863281 77.304688 205.066406 C 75.878906 204.339844 74.507812 203.65625 73.425781 202.578125 C 72.308594 201.453125 71.484375 199.929688 70.765625 198.398438 C 70 196.773438 69.632812 194.785156 69.039062 193.058594 C 68.476562 191.417969 67.636719 190.035156 67.300781 188.289062 C 66.917969 186.292969 66.445312 183.804688 67.097656 181.675781 C 67.839844 179.238281 69.992188 176.222656 72.144531 174.640625 C 74.191406 173.140625 77.265625 172.773438 79.554688 172.1875 C 81.464844 171.699219 83.101562 171.453125 84.902344 171.203125 C 86.710938 170.949219 88.488281 170.808594 90.363281 170.679688 C 92.355469 170.542969 94.5625 170.492188 96.535156 170.445312 C 98.347656 170.410156 100.058594 170.441406 101.761719 170.410156 C 103.382812 170.378906 104.902344 170.394531 106.507812 170.265625 C 108.179688 170.132812 109.960938 169.878906 111.609375 169.605469 C 113.167969 169.351562 114.570312 169.082031 116.152344 168.707031 C 117.925781 168.285156 120.535156 167.515625 121.726562 167.160156 C 122.296875 166.988281 122.558594 166.871094 122.988281 166.765625 C 123.421875 166.660156 123.871094 166.546875 124.320312 166.515625 C 124.773438 166.488281 125.230469 166.515625 125.671875 166.59375 C 126.113281 166.667969 126.554688 166.808594 126.96875 166.988281 C 127.382812 167.167969 127.785156 167.410156 128.140625 167.6875 C 128.492188 167.964844 128.820312 168.285156 129.097656 168.640625 C 129.375 168.992188 129.617188 169.390625 129.804688 169.800781 C 129.992188 170.207031 130.132812 170.648438 130.214844 171.09375 C 130.300781 171.535156 130.328125 172 130.300781 172.449219 C 130.269531 172.898438 130.195312 173.355469 130.058594 173.785156 C 129.929688 174.210938 129.742188 174.640625 129.511719 175.023438 C 129.277344 175.40625 128.992188 175.773438 128.679688 176.09375 C 128.363281 176.410156 127.996094 176.703125 127.613281 176.933594 C 127.230469 177.167969 126.96875 177.226562 126.375 177.496094 C 124.863281 178.179688 120.894531 179.996094 118.304688 181.113281 C 115.9375 182.140625 113.777344 183.183594 111.464844 183.96875 C 109.210938 184.734375 106.742188 185.253906 104.605469 185.792969 C 102.738281 186.265625 101.070312 186.460938 99.347656 187.050781 C 97.554688 187.667969 95.753906 188.679688 94.042969 189.453125 C 92.445312 190.171875 90.917969 190.890625 89.402344 191.542969 C 87.976562 192.160156 86.230469 192.960938 85.214844 193.285156 C 84.667969 193.457031 84.355469 193.539062 83.910156 193.585938 C 83.476562 193.628906 83.019531 193.628906 82.585938 193.570312 C 82.148438 193.507812 81.699219 193.40625 81.285156 193.238281 C 80.875 193.082031 80.476562 192.855469 80.117188 192.601562 C 79.757812 192.347656 79.417969 192.039062 79.125 191.710938 C 78.835938 191.371094 78.578125 190.996094 78.375 190.597656 C 78.175781 190.210938 78.023438 189.773438 77.917969 189.347656 C 77.8125 188.917969 77.761719 188.460938 77.769531 188.019531 C 77.777344 187.578125 77.835938 187.128906 77.949219 186.699219 C 78.0625 186.273438 78.226562 185.84375 78.4375 185.453125 C 78.648438 185.066406 78.910156 184.695312 79.203125 184.367188 C 79.5 184.035156 79.847656 183.738281 80.214844 183.488281 C 80.582031 183.242188 80.851562 182.996094 81.398438 182.882812 C 82.410156 182.671875 84.339844 183.023438 85.972656 183.152344 C 87.863281 183.300781 90.070312 183.503906 92.0625 183.746094 C 94.015625 183.976562 96.007812 184.269531 97.816406 184.578125 C 99.453125 184.855469 100.882812 185.238281 102.460938 185.484375 C 104.078125 185.738281 105.757812 185.949219 107.417969 186.078125 C 109.074219 186.203125 110.710938 186.28125 112.402344 186.25 C 114.179688 186.210938 116.515625 185.964844 117.839844 185.851562 C 118.605469 185.785156 119.09375 185.6875 119.648438 185.679688 C 120.128906 185.671875 120.550781 185.679688 120.984375 185.753906 C 121.417969 185.828125 121.863281 185.964844 122.265625 186.144531 C 122.671875 186.324219 123.0625 186.558594 123.414062 186.828125 C 123.765625 187.097656 124.089844 187.417969 124.367188 187.765625 C 124.644531 188.109375 124.882812 188.5 125.0625 188.90625 C 125.25 189.308594 125.386719 189.746094 125.46875 190.179688 C 125.550781 190.613281 125.582031 191.070312 125.558594 191.515625 C 125.535156 191.957031 125.453125 192.40625 125.328125 192.835938 C 125.199219 193.253906 125.011719 193.675781 124.785156 194.058594 C 124.5625 194.441406 124.277344 194.800781 123.960938 195.113281 C 123.652344 195.429688 123.292969 195.714844 122.917969 195.945312 C 122.542969 196.179688 122.125 196.367188 121.703125 196.503906 C 121.285156 196.636719 121 196.683594 120.382812 196.75 C 118.988281 196.90625 115.675781 196.988281 113.515625 197.003906 C 111.585938 197.011719 109.742188 197.109375 108.03125 196.863281 C 106.488281 196.636719 104.972656 196.523438 103.679688 195.699219 C 102.1875 194.746094 100.546875 192.804688 99.847656 191.09375 C 99.195312 189.488281 99.089844 187.515625 99.429688 185.816406 C 99.78125 184.03125 100.847656 182.042969 102.0625 180.648438 C 103.246094 179.289062 105.390625 178.203125 106.5625 177.503906 C 107.257812 177.085938 107.753906 176.835938 108.300781 176.621094 C 108.765625 176.433594 109.179688 176.296875 109.628906 176.222656 C 110.078125 176.148438 110.558594 176.125 111.015625 176.15625 C 111.472656 176.183594 111.945312 176.273438 112.382812 176.417969 C 112.816406 176.558594 113.25 176.761719 113.640625 177.003906 C 114.03125 177.242188 114.40625 177.535156 114.730469 177.863281 C 115.050781 178.195312 115.34375 178.570312 115.578125 178.96875 C 115.808594 179.363281 115.996094 179.800781 116.132812 180.242188 C 116.265625 180.683594 116.347656 181.148438 116.371094 181.605469 C 116.394531 182.066406 116.363281 182.542969 116.273438 182.996094 C 116.183594 183.445312 116.042969 183.894531 115.847656 184.316406 C 115.652344 184.734375 115.402344 185.140625 115.117188 185.5 C 114.835938 185.859375 114.488281 186.191406 114.121094 186.46875 C 113.753906 186.746094 113.484375 186.992188 112.929688 187.179688 C 111.886719 187.523438 109.832031 187.367188 108.121094 187.695312 C 106.097656 188.085938 103.675781 188.84375 101.582031 189.519531 C 99.601562 190.164062 97.679688 190.929688 95.867188 191.632812 C 94.1875 192.285156 92.492188 192.640625 91.058594 193.578125 C 89.613281 194.53125 87.894531 196.222656 87.242188 197.3125 C 86.867188 197.941406 86.988281 198.488281 86.738281 199.035156 C 86.484375 199.59375 86.148438 200.148438 85.734375 200.605469 C 85.320312 201.0625 84.8125 201.472656 84.277344 201.773438 C 83.746094 202.074219 83.125 202.308594 82.523438 202.417969 C 81.925781 202.53125 81.273438 202.546875 80.664062 202.464844 C 80.054688 202.382812 79.425781 202.1875 78.878906 201.917969 C 78.332031 201.648438 77.800781 201.265625 77.363281 200.828125 C 76.929688 200.394531 76.546875 199.863281 76.277344 199.316406 C 76.007812 198.765625 75.8125 198.136719 75.730469 197.53125 C 75.648438 196.921875 75.667969 196.261719 75.78125 195.660156 C 75.894531 195.0625 76.117188 194.445312 76.417969 193.914062 C 76.71875 193.382812 77.132812 192.871094 77.589844 192.460938 C 78.046875 192.046875 78.601562 191.695312 79.164062 191.453125 C 79.726562 191.214844 80.363281 191.050781 80.980469 191.003906 C 81.585938 190.960938 82.238281 191.011719 82.832031 191.160156 C 83.425781 191.3125 84.03125 191.566406 84.550781 191.898438 C 85.066406 192.226562 85.554688 192.660156 85.9375 193.140625 C 86.320312 193.621094 86.640625 194.191406 86.851562 194.769531 C 87.0625 195.347656 87.1875 195.984375 87.203125 196.597656 C 87.21875 197.214844 87.136719 197.867188 86.957031 198.453125 C 86.777344 199.035156 86.484375 199.621094 86.125 200.117188 C 85.765625 200.613281 85.300781 201.078125 84.804688 201.4375 C 84.300781 201.796875 83.714844 202.089844 83.132812 202.269531 C 82.546875 202.449219 81.894531 202.53125 81.277344 202.515625 C 80.664062 202.503906 80.027344 202.375 79.449219 202.164062 C 78.871094 201.953125 78.308594 201.632812 77.828125 201.25 C 77.347656 200.867188 76.914062 200.371094 76.585938 199.855469 C 76.253906 199.335938 75.992188 198.738281 75.839844 198.144531 C 75.691406 197.550781 75.640625 196.898438 75.691406 196.285156 C 75.742188 195.667969 76.132812 194.46875 76.140625 194.46875 C 76.140625 194.46875 76.140625 194.476562 76.140625 194.476562 C 76.164062 194.484375 77.257812 191.535156 78.128906 190.238281 C 79.023438 188.90625 80.207031 187.683594 81.453125 186.59375 C 82.726562 185.476562 84.242188 184.433594 85.703125 183.640625 C 87.070312 182.898438 88.449219 182.492188 89.917969 181.921875 C 91.523438 181.300781 93.210938 180.738281 94.964844 180.070312 C 96.886719 179.335938 98.835938 178.261719 100.972656 177.691406 C 103.261719 177.085938 106.855469 176.949219 108.300781 176.628906 C 108.929688 176.484375 109.179688 176.304688 109.628906 176.222656 C 110.078125 176.140625 110.558594 176.125 111.015625 176.15625 C 111.472656 176.183594 111.945312 176.273438 112.382812 176.417969 C 112.816406 176.558594 113.25 176.753906 113.640625 176.996094 C 114.03125 177.234375 114.40625 177.535156 114.730469 177.863281 C 115.050781 178.195312 115.34375 178.570312 115.578125 178.96875 C 115.808594 179.363281 115.996094 179.800781 116.132812 180.242188 C 116.265625 180.683594 116.347656 181.148438 116.371094 181.605469 C 116.394531 182.066406 116.363281 182.542969 116.273438 182.996094 C 116.183594 183.445312 116.042969 183.894531 115.847656 184.316406 C 115.652344 184.734375 115.402344 185.140625 115.117188 185.5 C 114.835938 185.859375 114.488281 186.191406 114.121094 186.46875 C 113.753906 186.746094 113.191406 187.023438 112.929688 187.179688 C 112.800781 187.261719 112.800781 187.34375 112.644531 187.359375 C 112.027344 187.417969 107.910156 185.820312 107.964844 185.566406 C 108.015625 185.304688 111.347656 185.820312 113.175781 185.84375 C 115.214844 185.875 118.300781 185.65625 119.648438 185.679688 C 120.265625 185.6875 120.550781 185.679688 120.984375 185.753906 C 121.417969 185.828125 121.855469 185.964844 122.257812 186.144531 C 122.664062 186.324219 123.0625 186.558594 123.414062 186.828125 C 123.765625 187.097656 124.089844 187.417969 124.367188 187.765625 C 124.644531 188.109375 124.882812 188.5 125.0625 188.90625 C 125.25 189.308594 125.386719 189.746094 125.46875 190.179688 C 125.550781 190.613281 125.582031 191.070312 125.558594 191.515625 C 125.535156 191.957031 125.453125 192.40625 125.328125 192.835938 C 125.199219 193.253906 125.011719 193.675781 124.785156 194.058594 C 124.5625 194.441406 124.277344 194.800781 123.960938 195.113281 C 123.652344 195.429688 123.292969 195.714844 122.917969 195.945312 C 122.542969 196.179688 122.125 196.367188 121.703125 196.503906 C 121.285156 196.636719 120.929688 196.675781 120.382812 196.75 C 119.507812 196.863281 118.179688 196.945312 116.933594 197.011719 C 115.480469 197.09375 113.851562 197.183594 112.179688 197.191406 C 110.304688 197.199219 108.167969 197.148438 106.203125 196.996094 C 104.289062 196.855469 102.324219 196.605469 100.539062 196.320312 C 98.917969 196.066406 97.5 195.667969 95.933594 195.40625 C 94.3125 195.136719 92.679688 195.046875 90.96875 194.71875 C 89.109375 194.355469 86.453125 193.285156 85.214844 193.277344 C 84.632812 193.277344 84.355469 193.53125 83.917969 193.585938 C 83.476562 193.636719 83.019531 193.628906 82.585938 193.570312 C 82.140625 193.507812 81.699219 193.40625 81.285156 193.238281 C 80.875 193.082031 80.476562 192.855469 80.117188 192.601562 C 79.757812 192.347656 79.417969 192.039062 79.125 191.710938 C 78.835938 191.371094 78.578125 190.996094 78.375 190.597656 C 78.175781 190.210938 78.023438 189.773438 77.917969 189.347656 C 77.8125 188.917969 77.761719 188.460938 77.769531 188.019531 C 77.777344 187.578125 77.835938 187.128906 77.949219 186.699219 C 78.0625 186.273438 78.226562 185.84375 78.4375 185.453125 C 78.648438 185.066406 78.910156 184.695312 79.203125 184.367188 C 79.5 184.035156 79.847656 183.738281 80.214844 183.488281 C 80.582031 183.242188 80.898438 183.105469 81.398438 182.882812 C 82.210938 182.523438 83.453125 182.09375 84.640625 181.636719 C 86.070312 181.082031 87.839844 180.421875 89.378906 179.769531 C 90.871094 179.132812 92.175781 178.359375 93.742188 177.773438 C 95.484375 177.121094 97.507812 176.605469 99.382812 176.101562 C 101.222656 175.613281 103.066406 175.300781 104.875 174.789062 C 106.6875 174.28125 108.332031 173.800781 110.257812 173.027344 C 112.605469 172.082031 115.605469 170.515625 117.886719 169.382812 C 119.761719 168.453125 121.816406 167.160156 122.988281 166.765625 C 123.554688 166.570312 123.871094 166.546875 124.320312 166.515625 C 124.773438 166.488281 125.230469 166.515625 125.671875 166.59375 C 126.113281 166.667969 126.554688 166.808594 126.96875 166.988281 C 127.382812 167.167969 127.785156 167.410156 128.140625 167.6875 C 128.492188 167.964844 128.820312 168.285156 129.097656 168.640625 C 129.375 168.992188 129.617188 169.390625 129.804688 169.800781 C 129.992188 170.207031 130.132812 170.648438 130.214844 171.09375 C 130.300781 171.535156 130.328125 172 130.300781 172.449219 C 130.269531 172.898438 130.195312 173.355469 130.058594 173.785156 C 129.929688 174.210938 129.742188 174.640625 129.511719 175.023438 C 129.277344 175.40625 128.992188 175.773438 128.679688 176.09375 C 128.363281 176.410156 127.996094 176.703125 127.613281 176.933594 C 127.230469 177.167969 126.902344 177.316406 126.375 177.496094 C 125.535156 177.789062 124.1875 178.007812 122.980469 178.320312 C 121.589844 178.683594 120.097656 179.183594 118.523438 179.558594 C 116.792969 179.972656 114.863281 180.347656 112.996094 180.660156 C 111.097656 180.984375 109.117188 181.300781 107.222656 181.464844 C 105.398438 181.628906 103.589844 181.621094 101.835938 181.675781 C 100.15625 181.71875 98.625 181.683594 96.917969 181.757812 C 95.042969 181.839844 93.023438 181.96875 91.027344 182.160156 C 88.953125 182.371094 86.753906 182.84375 84.675781 182.988281 C 82.695312 183.121094 79.652344 182.117188 78.863281 183.046875 C 78.136719 183.910156 79.277344 186.265625 79.652344 187.972656 C 80.070312 189.878906 80.191406 192.578125 81.324219 193.9375 C 82.320312 195.136719 84.113281 195.566406 85.675781 196.058594 C 87.308594 196.578125 89.199219 196.765625 90.929688 196.921875 C 92.605469 197.070312 94.238281 196.816406 95.902344 197.019531 C 97.621094 197.230469 99.511719 198.558594 101.078125 198.203125 C 102.667969 197.851562 103.855469 196.007812 105.355469 194.84375 C 107.003906 193.570312 108.929688 192.023438 110.566406 190.878906 C 111.9375 189.917969 113.289062 189.371094 114.464844 188.363281 C 115.660156 187.34375 116.722656 186.128906 117.660156 184.800781 C 118.660156 183.390625 119.425781 181.785156 120.226562 180.097656 C 121.105469 178.238281 121.773438 174.152344 122.671875 174.085938 C 123.464844 174.023438 123.878906 177.683594 125.242188 178.40625 C 126.847656 179.253906 131.542969 177.046875 132.167969 177.976562 C 132.742188 178.839844 130.398438 181.539062 129.5625 183.308594 C 128.753906 185.042969 128.011719 186.714844 127.238281 188.5 C 126.429688 190.382812 125.6875 192.46875 124.816406 194.335938 C 123.976562 196.128906 123.105469 197.777344 122.125 199.507812 C 121.089844 201.332031 120.070312 203.214844 118.726562 205.015625 C 117.25 206.996094 115.660156 209.507812 113.515625 210.84375 C 111.316406 212.207031 108.023438 212.792969 105.648438 213.046875 C 103.75 213.25 102.070312 213.167969 100.425781 212.730469 C 98.800781 212.304688 97.027344 211.554688 95.835938 210.46875 C 94.679688 209.417969 93.855469 207.84375 93.324219 206.394531 C 92.804688 204.984375 92.714844 203.492188 92.632812 201.910156 C 92.542969 200.148438 92.6875 198.09375 92.917969 196.300781 C 93.144531 194.605469 93.292969 192.902344 93.960938 191.425781 C 94.628906 189.953125 95.746094 188.664062 96.925781 187.464844 C 98.167969 186.191406 99.820312 185.066406 101.296875 184.03125 C 102.699219 183.046875 103.960938 182.363281 105.542969 181.359375 C 107.566406 180.078125 110.453125 178.238281 112.464844 176.957031 C 114.015625 175.96875 115.1875 175.195312 116.589844 174.324219 C 118.015625 173.441406 119.4375 172.546875 120.945312 171.699219 C 122.515625 170.820312 124.15625 169.90625 125.84375 169.164062 C 127.554688 168.414062 129.179688 167.71875 131.152344 167.230469 C 133.5 166.652344 136.675781 166.320312 139.074219 166.171875 C 141.046875 166.042969 142.765625 165.917969 144.503906 166.210938 C 146.191406 166.496094 148.3125 166.636719 149.371094 167.875 C 150.675781 169.398438 151.3125 173.535156 150.730469 175.515625 C 150.257812 177.113281 148.539062 178.035156 147.292969 179.199219 C 146.003906 180.40625 144.527344 181.539062 143.109375 182.613281 C 141.722656 183.660156 140.320312 184.546875 138.863281 185.582031 C 137.304688 186.691406 135.660156 187.847656 134.027344 189.070312 C 132.308594 190.351562 130.585938 191.679688 128.8125 193.113281 C 126.917969 194.648438 124.953125 196.1875 123.023438 198.023438 C 120.863281 200.078125 118.5 202.652344 116.550781 204.960938 C 114.765625 207.078125 113.140625 209.101562 111.722656 211.300781 C 110.347656 213.4375 109.15625 215.785156 108.152344 217.945312 C 107.242188 219.894531 106.621094 221.753906 105.894531 223.675781 C 105.167969 225.59375 105.1875 228.152344 103.800781 229.457031 C 102.285156 230.875 98.867188 231.804688 96.804688 231.488281 C 94.953125 231.203125 93.257812 229.621094 91.898438 228.210938 C 90.496094 226.757812 89.695312 224.730469 88.585938 222.835938 C 87.363281 220.75 86.183594 218.335938 84.886719 216.191406 C 83.613281 214.082031 82.230469 211.960938 80.867188 210.070312 C 79.621094 208.34375 78.480469 206.722656 77.0625 205.285156 C 75.652344 203.851562 74.09375 202.636719 72.375 201.46875 C 70.539062 200.207031 68.078125 199.269531 66.332031 198.039062 C 64.816406 196.96875 63.367188 195.210938 62.371094 194.628906 C 61.863281 194.328125 61.492188 194.371094 61.089844 194.167969 C 60.683594 193.96875 60.292969 193.71875 59.949219 193.425781 C 59.605469 193.132812 59.289062 192.796875 59.027344 192.429688 C 58.765625 192.0625 58.539062 191.65625 58.367188 191.238281 C 58.203125 190.816406 58.074219 190.367188 58.015625 189.925781 C 57.953125 189.480469 57.9375 189.015625 57.984375 188.566406 C 58.027344 188.117188 58.125 187.667969 58.277344 187.238281 C 58.425781 186.8125 58.636719 186.390625 58.882812 186.015625 C 59.132812 185.640625 59.429688 185.289062 59.761719 184.980469 C 60.089844 184.675781 60.472656 184.40625 60.863281 184.1875 C 61.261719 183.96875 61.6875 183.796875 62.125 183.675781 C 62.558594 183.558594 63.015625 183.496094 63.464844 183.480469 C 63.917969 183.46875 64.734375 183.683594 64.824219 183.609375 C 64.847656 183.59375 64.808594 183.558594 64.832031 183.542969 C 65.042969 183.414062 69.070312 184.792969 70.792969 185.640625 C 72.25 186.355469 73.636719 186.960938 74.597656 188.101562 C 75.617188 189.308594 76.035156 191.230469 76.605469 192.8125 C 77.167969 194.355469 77.453125 195.945312 78 197.5 C 78.5625 199.097656 79.238281 200.695312 79.953125 202.261719 C 80.664062 203.835938 81.839844 205.277344 82.285156 206.910156 C 82.726562 208.546875 82.023438 211.410156 82.628906 212.070312 C 82.9375 212.402344 83.5 212.15625 83.917969 212.265625 C 84.339844 212.378906 84.75 212.550781 85.132812 212.761719 C 85.507812 212.972656 85.875 213.242188 86.191406 213.535156 C 86.507812 213.835938 86.800781 214.171875 87.03125 214.539062 C 87.265625 214.898438 87.460938 215.304688 87.601562 215.71875 C 87.742188 216.121094 87.847656 216.566406 87.886719 216.992188 C 87.925781 217.417969 87.910156 217.871094 87.847656 218.296875 C 87.789062 218.722656 87.667969 219.160156 87.503906 219.566406 C 87.339844 219.960938 87.113281 220.351562 86.859375 220.703125 C 86.605469 221.050781 86.296875 221.378906 85.964844 221.65625 C 85.636719 221.933594 85.261719 222.183594 84.871094 222.371094 C 84.480469 222.566406 84.0625 222.714844 83.632812 222.804688 C 83.214844 222.894531 82.890625 222.933594 82.328125 222.925781 C 81.277344 222.910156 79.402344 222.78125 77.828125 222.371094 C 75.9375 221.875 73.300781 221.191406 71.820312 219.878906 C 70.433594 218.648438 69.617188 216.609375 69.039062 214.90625 C 68.5 213.316406 68.484375 211.667969 68.339844 210.015625 C 68.199219 208.34375 68.242188 206.597656 68.207031 204.933594 C 68.167969 203.320312 68.25 201.855469 68.132812 200.175781 C 67.996094 198.257812 68.109375 195.84375 67.367188 194.042969 C 66.652344 192.316406 64.125 191.132812 63.902344 189.535156 C 63.683594 188.003906 64.792969 186.152344 65.8125 184.691406 C 66.945312 183.0625 69.03125 181.832031 70.621094 180.371094 C 72.226562 178.898438 73.667969 177.4375 75.398438 175.898438 C 77.355469 174.152344 79.554688 172.308594 81.804688 170.46875 C 84.226562 168.488281 87.078125 166.082031 89.46875 164.417969 C 91.417969 163.058594 93.160156 162.046875 94.996094 161.042969 C 96.730469 160.089844 98.445312 159.21875 100.179688 158.5 C 101.835938 157.808594 103.523438 157.253906 105.175781 156.789062 C 106.75 156.347656 108.285156 156.070312 109.855469 155.761719 C 111.429688 155.453125 113.003906 155.207031 114.609375 154.9375 C 116.25 154.660156 117.902344 154.390625 119.605469 154.128906 C 121.375 153.855469 123.226562 153.578125 125.042969 153.355469 C 126.863281 153.128906 128.722656 152.949219 130.515625 152.761719 C 132.257812 152.582031 133.855469 152.34375 135.648438 152.246094 C 137.617188 152.140625 140.6875 152.3125 141.871094 152.214844 C 142.351562 152.175781 142.53125 152.066406 142.867188 152.050781 C 143.207031 152.035156 143.550781 152.066406 143.882812 152.132812 C 144.210938 152.199219 144.542969 152.304688 144.839844 152.445312 C 145.140625 152.589844 145.433594 152.777344 145.695312 152.988281 C 145.960938 153.195312 146.199219 153.453125 146.402344 153.722656 C 146.605469 153.992188 146.777344 154.285156 146.902344 154.59375 C 147.039062 154.898438 147.136719 155.238281 147.1875 155.566406 C 147.242188 155.898438 147.257812 156.242188 147.226562 156.578125 C 147.195312 156.910156 147.136719 157.253906 147.03125 157.570312 C 146.925781 157.882812 146.777344 158.199219 146.597656 158.484375 C 146.417969 158.769531 146.191406 159.039062 145.953125 159.273438 C 145.710938 159.503906 145.441406 159.714844 145.148438 159.878906 C 144.855469 160.042969 144.5625 160.148438 144.210938 160.277344 C 143.769531 160.433594 143.363281 160.515625 142.695312 160.734375 C 141.382812 161.160156 138.660156 162.144531 136.863281 162.738281 C 135.316406 163.246094 134.054688 163.585938 132.550781 164.09375 C 130.855469 164.664062 129.0625 165.347656 127.179688 166.023438 C 125.085938 166.773438 122.785156 167.613281 120.542969 168.398438 C 118.253906 169.203125 115.914062 170.003906 113.582031 170.785156 C 111.234375 171.570312 108.839844 172.464844 106.492188 173.117188 C 104.230469 173.746094 102.0625 174.152344 99.742188 174.648438 C 97.304688 175.171875 94.628906 175.75 92.222656 176.167969 C 90.015625 176.550781 88 176.820312 85.863281 177.085938 C 83.6875 177.347656 81.355469 177.609375 79.285156 177.753906 C 77.429688 177.878906 75.773438 178.015625 74.019531 177.925781 C 72.25 177.835938 68.695312 177.363281 68.703125 177.195312 C 68.710938 177.039062 73.253906 176.769531 73.285156 176.917969 C 73.300781 177.003906 72.429688 177.285156 71.980469 177.390625 C 71.527344 177.496094 71.054688 177.550781 70.597656 177.542969 C 70.140625 177.535156 69.660156 177.46875 69.21875 177.355469 C 68.769531 177.234375 68.328125 177.0625 67.921875 176.84375 C 67.515625 176.628906 67.125 176.34375 66.789062 176.035156 C 66.453125 175.71875 66.136719 175.359375 65.882812 174.976562 C 65.625 174.59375 65.410156 174.175781 65.25 173.738281 C 65.09375 173.304688 64.980469 172.839844 64.9375 172.382812 C 64.890625 171.925781 64.898438 171.453125 64.960938 170.996094 C 65.019531 170.535156 65.140625 170.070312 65.3125 169.644531 C 65.484375 169.21875 65.710938 168.796875 65.980469 168.421875 C 66.25 168.046875 66.5625 167.695312 66.917969 167.394531 C 67.261719 167.09375 67.6875 166.808594 68.070312 166.621094 C 68.410156 166.457031 68.625 166.472656 69.089844 166.285156 C 70.203125 165.84375 72.855469 164.476562 74.589844 163.703125 C 76.113281 163.023438 77.320312 162.25 78.917969 161.867188 C 80.722656 161.433594 82.996094 161.515625 84.945312 161.453125 C 86.785156 161.394531 88.433594 161.460938 90.300781 161.492188 C 92.339844 161.53125 94.605469 161.558594 96.722656 161.664062 C 98.785156 161.769531 100.882812 162.007812 102.828125 162.128906 C 104.589844 162.234375 106.132812 162.292969 107.890625 162.363281 C 109.777344 162.429688 111.960938 162.382812 113.792969 162.527344 C 115.398438 162.65625 116.703125 162.855469 118.285156 163.097656 C 120.078125 163.367188 122.148438 163.667969 123.984375 164.101562 C 125.753906 164.523438 127.480469 165.09375 129.136719 165.632812 C 130.695312 166.140625 132.160156 166.710938 133.652344 167.230469 C 135.121094 167.738281 136.554688 167.972656 138.039062 168.714844 C 139.800781 169.597656 142.15625 170.859375 143.429688 172.410156 C 144.601562 173.835938 145.433594 175.78125 145.613281 177.480469 C 145.785156 179.101562 145.222656 180.78125 144.640625 182.363281 C 144.015625 184.042969 142.9375 185.613281 141.910156 187.261719 C 140.792969 189.054688 139.351562 190.972656 138.121094 192.683594 C 136.996094 194.253906 136.027344 195.570312 134.8125 197.132812 C 133.410156 198.933594 131.8125 200.835938 130.15625 202.832031 C 128.296875 205.066406 125.8125 207.917969 124.164062 209.875 C 122.992188 211.261719 122.175781 212.265625 121.171875 213.445312 C 120.167969 214.605469 119.320312 215.558594 118.132812 216.894531 C 116.492188 218.746094 114.085938 221.507812 112.222656 223.507812 C 110.617188 225.226562 109.125 226.660156 107.65625 228.21875 C 106.246094 229.71875 104.8125 231.078125 103.585938 232.703125 C 102.316406 234.378906 101.730469 236.972656 100.171875 238.148438 C 98.6875 239.273438 96.375 239.664062 94.5625 239.785156 C 92.910156 239.898438 91.300781 239.65625 89.746094 239.066406 C 88.042969 238.410156 86.0625 237.21875 84.839844 235.847656 C 83.6875 234.550781 83.167969 232.78125 82.488281 231.136719 C 81.789062 229.449219 81.265625 227.664062 80.722656 225.855469 C 80.160156 223.980469 79.71875 222.070312 79.179688 220.074219 C 78.59375 217.9375 78.046875 215.558594 77.339844 213.445312 C 76.679688 211.449219 75.945312 209.515625 75.113281 207.714844 C 74.335938 206.027344 73.570312 204.542969 72.542969 202.945312 C 71.386719 201.152344 69.742188 199.253906 68.4375 197.523438 C 67.238281 195.933594 66.175781 194.5 64.980469 192.941406 C 63.722656 191.296875 62.296875 189.699219 61.074219 187.890625 C 59.785156 185.980469 58.382812 183.847656 57.488281 181.734375 C 56.640625 179.730469 55.960938 177.59375 55.773438 175.554688 C 55.589844 173.621094 55.660156 171.601562 56.273438 169.816406 C 56.902344 167.988281 58.222656 166 59.566406 164.71875 C 60.757812 163.578125 62.265625 163 63.722656 162.292969 C 65.222656 161.574219 66.722656 160.90625 68.445312 160.457031 C 70.398438 159.953125 72.742188 159.722656 74.859375 159.578125 C 76.914062 159.4375 79.007812 159.578125 80.964844 159.578125 C 82.777344 159.578125 84.4375 159.578125 86.214844 159.585938 C 88.050781 159.59375 90.660156 159.542969 91.808594 159.632812 C 92.328125 159.667969 92.566406 159.699219 92.925781 159.796875 C 93.285156 159.894531 93.640625 160.050781 93.960938 160.230469 C 94.285156 160.417969 94.597656 160.644531 94.867188 160.898438 C 95.140625 161.15625 95.394531 161.445312 95.597656 161.761719 C 95.800781 162.078125 95.972656 162.421875 96.089844 162.773438 C 96.210938 163.128906 96.292969 163.503906 96.324219 163.878906 C 96.355469 164.246094 96.347656 164.632812 96.292969 165.003906 C 96.242188 165.371094 96.136719 165.746094 95.992188 166.089844 C 95.851562 166.433594 95.65625 166.765625 95.4375 167.066406 C 95.214844 167.363281 94.953125 167.648438 94.667969 167.890625 C 94.382812 168.128906 94.058594 168.339844 93.722656 168.503906 C 93.382812 168.667969 93.023438 168.796875 92.65625 168.871094 C 92.289062 168.945312 91.53125 168.96875 91.53125 168.96875 " clip-rule="nonzero"/></clipPath><clipPath id="b96c0e8fbd"><path d="M 205 121.558594 L 255 121.558594 L 255 172 L 205 172 Z M 205 121.558594 " clip-rule="nonzero"/></clipPath><clipPath id="d1e607237e"><path d="M 204.207031 119.792969 L 257.457031 119.792969 L 257.457031 173.042969 L 204.207031 173.042969 Z M 204.207031 119.792969 " clip-rule="nonzero"/></clipPath></defs><g clip-path="url(#a09d701599)"><path fill="#ffffff" d="M 20.058594 188.308594 L 303.066406 188.308594 L 303.066406 300.808594 L 20.058594 300.808594 Z M 20.058594 188.308594 " fill-opacity="1" fill-rule="nonzero"/></g><g clip-path="url(#b8b5e80bf5)"><path fill="#ffffff" d="M 32.058594 200.308594 L 315.066406 200.308594 L 315.066406 312.808594 L 32.058594 312.808594 Z M 32.058594 200.308594 " fill-opacity="1" fill-rule="nonzero"/></g><g clip-path="url(#66352c58cf)"><g clip-path="url(#b341a836f9)"><path fill="#ffffff" d="M 113.085938 164.347656 L 173.835938 164.347656 L 173.835938 231.097656 L 113.085938 231.097656 Z M 113.085938 164.347656 " fill-opacity="1" fill-rule="nonzero"/></g></g><g clip-path="url(#a6c6fa9c86)"><g clip-path="url(#344ec53644)"><path fill="#ffffff" d="M 52.773438 149.050781 L 154.023438 149.050781 L 154.023438 242.800781 L 52.773438 242.800781 Z M 52.773438 149.050781 " fill-opacity="1" fill-rule="nonzero"/></g></g><path fill="#000000" d="M 132.5 131.558594 C 129.738281 131.558594 127.5 133.796875 127.5 136.558594 C 127.5 139.320312 129.738281 141.558594 132.5 141.558594 Z M 143.609375 136.558594 L 148.511719 135.570312 C 148.042969 133.238281 145.992188 131.558594 143.609375 131.558594 Z M 140.929688 148.59375 C 141.476562 151.304688 144.113281 153.054688 146.820312 152.511719 C 149.527344 151.96875 151.28125 149.332031 150.734375 146.625 Z M 154.722656 186.820312 C 151.960938 186.820312 149.722656 189.058594 149.722656 191.820312 C 149.722656 194.582031 151.960938 196.820312 154.722656 196.820312 Z M 210.277344 191.820312 L 210.277344 196.820312 C 212.167969 196.820312 213.898438 195.753906 214.746094 194.066406 Z M 232.5 147.609375 L 236.96875 149.855469 C 237.746094 148.304688 237.667969 146.460938 236.757812 144.984375 C 235.84375 143.507812 234.234375 142.609375 232.5 142.609375 Z M 145.832031 142.609375 C 143.070312 142.609375 140.832031 144.847656 140.832031 147.609375 C 140.832031 150.371094 143.070312 152.609375 145.832031 152.609375 Z M 149.820312 192.804688 C 150.363281 195.511719 153 197.265625 155.707031 196.722656 C 158.414062 196.175781 160.167969 193.542969 159.625 190.835938 Z M 150.734375 146.625 C 150.191406 143.917969 147.554688 142.164062 144.847656 142.707031 C 142.140625 143.253906 140.386719 145.886719 140.929688 148.59375 Z M 158.25 195.363281 C 160.207031 193.417969 160.214844 190.25 158.265625 188.292969 C 156.320312 186.335938 153.152344 186.328125 151.195312 188.277344 Z M 141.984375 204.492188 L 138.457031 200.945312 Z M 210.277344 218.925781 C 213.039062 218.925781 215.277344 216.6875 215.277344 213.925781 C 215.277344 211.164062 213.039062 208.925781 210.277344 208.925781 Z M 210.277344 213.925781 L 205.277344 213.925781 C 205.277344 215.257812 205.808594 216.53125 206.75 217.46875 Z M 221.390625 224.976562 L 217.863281 228.523438 C 218.800781 229.453125 220.066406 229.976562 221.390625 229.976562 Z M 165.832031 224.976562 L 161.507812 222.46875 C 161.066406 223.230469 160.832031 224.097656 160.832031 224.976562 Z M 165.832031 236.03125 L 160.832031 236.03125 C 160.832031 236.910156 161.066406 237.777344 161.507812 238.539062 Z M 132.5 141.558594 L 143.609375 141.558594 L 143.609375 131.558594 L 132.5 131.558594 Z M 138.710938 137.542969 L 140.929688 148.59375 L 150.734375 146.625 L 148.511719 135.570312 Z M 154.722656 196.820312 L 210.277344 196.820312 L 210.277344 186.820312 L 154.722656 186.820312 Z M 214.746094 194.066406 L 236.96875 149.855469 L 228.03125 145.363281 L 205.808594 189.574219 Z M 232.5 142.609375 L 145.832031 142.609375 L 145.832031 152.609375 L 232.5 152.609375 Z M 159.625 190.835938 L 150.734375 146.625 L 140.929688 148.59375 L 149.820312 192.804688 Z M 151.195312 188.277344 L 138.457031 200.945312 L 145.507812 208.035156 L 158.25 195.363281 Z M 138.457031 200.945312 C 131.753906 207.613281 136.554688 218.925781 145.910156 218.925781 L 145.910156 208.925781 C 145.710938 208.925781 145.628906 208.875 145.585938 208.847656 C 145.523438 208.800781 145.445312 208.71875 145.394531 208.59375 C 145.34375 208.464844 145.339844 208.359375 145.351562 208.292969 C 145.355469 208.253906 145.375 208.171875 145.507812 208.035156 Z M 145.910156 218.925781 L 210.277344 218.925781 L 210.277344 208.925781 L 145.910156 208.925781 Z M 215.277344 213.925781 C 215.277344 210.609375 217.988281 207.871094 221.390625 207.871094 L 221.390625 197.871094 C 212.515625 197.871094 205.277344 205.035156 205.277344 213.925781 Z M 221.390625 207.871094 C 224.789062 207.871094 227.5 210.609375 227.5 213.925781 L 237.5 213.925781 C 237.5 205.035156 230.261719 197.871094 221.390625 197.871094 Z M 227.5 213.925781 C 227.5 217.242188 224.789062 219.976562 221.390625 219.976562 L 221.390625 229.976562 C 230.261719 229.976562 237.5 222.816406 237.5 213.925781 Z M 224.914062 221.433594 L 213.804688 210.378906 L 206.75 217.46875 L 217.863281 228.523438 Z M 170.15625 227.488281 C 171.535156 225.117188 174.355469 223.941406 177.042969 224.660156 L 179.621094 214.996094 C 172.59375 213.125 165.160156 216.175781 161.507812 222.46875 Z M 177.042969 224.660156 C 179.726562 225.375 181.566406 227.78125 181.566406 230.503906 L 191.566406 230.503906 C 191.566406 223.21875 186.652344 216.871094 179.621094 214.996094 Z M 181.566406 230.503906 C 181.566406 233.226562 179.726562 235.632812 177.042969 236.347656 L 179.621094 246.011719 C 186.652344 244.136719 191.566406 237.789062 191.566406 230.503906 Z M 177.042969 236.347656 C 174.355469 237.066406 171.535156 235.890625 170.15625 233.519531 L 161.507812 238.539062 C 165.160156 244.835938 172.59375 247.882812 179.621094 246.011719 Z M 170.832031 236.03125 L 170.832031 224.976562 L 160.832031 224.976562 L 160.832031 236.03125 Z M 170.832031 236.03125 " fill-opacity="1" fill-rule="nonzero"/><g clip-path="url(#b96c0e8fbd)"><path fill="#acd9b2" d="M 255 146.558594 C 255 147.375 254.960938 148.191406 254.878906 149.007812 C 254.800781 149.824219 254.679688 150.632812 254.519531 151.433594 C 254.359375 152.238281 254.160156 153.03125 253.921875 153.816406 C 253.6875 154.597656 253.410156 155.367188 253.097656 156.125 C 252.785156 156.882812 252.433594 157.621094 252.046875 158.34375 C 251.660156 159.066406 251.242188 159.765625 250.785156 160.445312 C 250.332031 161.128906 249.84375 161.785156 249.324219 162.417969 C 248.804688 163.050781 248.257812 163.65625 247.675781 164.234375 C 247.097656 164.8125 246.492188 165.363281 245.859375 165.882812 C 245.226562 166.402344 244.570312 166.890625 243.890625 167.34375 C 243.207031 167.800781 242.507812 168.21875 241.785156 168.605469 C 241.0625 168.992188 240.324219 169.339844 239.566406 169.65625 C 238.8125 169.96875 238.039062 170.242188 237.257812 170.480469 C 236.472656 170.71875 235.679688 170.917969 234.878906 171.078125 C 234.074219 171.238281 233.265625 171.355469 232.449219 171.4375 C 231.636719 171.515625 230.820312 171.558594 230 171.558594 C 229.179688 171.558594 228.363281 171.515625 227.550781 171.4375 C 226.734375 171.355469 225.925781 171.238281 225.121094 171.078125 C 224.320312 170.917969 223.527344 170.71875 222.742188 170.480469 C 221.960938 170.242188 221.1875 169.96875 220.433594 169.65625 C 219.675781 169.339844 218.9375 168.992188 218.214844 168.605469 C 217.492188 168.21875 216.792969 167.800781 216.109375 167.34375 C 215.429688 166.890625 214.773438 166.402344 214.140625 165.882812 C 213.507812 165.363281 212.902344 164.8125 212.324219 164.234375 C 211.742188 163.65625 211.195312 163.050781 210.675781 162.417969 C 210.15625 161.785156 209.667969 161.128906 209.214844 160.445312 C 208.757812 159.765625 208.339844 159.066406 207.953125 158.34375 C 207.566406 157.621094 207.214844 156.882812 206.902344 156.125 C 206.589844 155.367188 206.3125 154.597656 206.078125 153.816406 C 205.839844 153.03125 205.640625 152.238281 205.480469 151.433594 C 205.320312 150.632812 205.199219 149.824219 205.121094 149.007812 C 205.039062 148.191406 205 147.375 205 146.558594 C 205 145.738281 205.039062 144.921875 205.121094 144.105469 C 205.199219 143.292969 205.320312 142.484375 205.480469 141.679688 C 205.640625 140.878906 205.839844 140.082031 206.078125 139.300781 C 206.3125 138.515625 206.589844 137.746094 206.902344 136.992188 C 207.214844 136.234375 207.566406 135.496094 207.953125 134.773438 C 208.339844 134.050781 208.757812 133.347656 209.214844 132.667969 C 209.667969 131.988281 210.15625 131.332031 210.675781 130.699219 C 211.195312 130.066406 211.742188 129.457031 212.324219 128.878906 C 212.902344 128.300781 213.507812 127.75 214.140625 127.230469 C 214.773438 126.710938 215.429688 126.226562 216.109375 125.769531 C 216.792969 125.316406 217.492188 124.894531 218.214844 124.507812 C 218.9375 124.125 219.675781 123.773438 220.433594 123.460938 C 221.1875 123.148438 221.960938 122.871094 222.742188 122.632812 C 223.527344 122.394531 224.320312 122.199219 225.121094 122.039062 C 225.925781 121.878906 226.734375 121.757812 227.550781 121.679688 C 228.363281 121.597656 229.179688 121.558594 230 121.558594 C 230.820312 121.558594 231.636719 121.597656 232.449219 121.679688 C 233.265625 121.757812 234.074219 121.878906 234.878906 122.039062 C 235.679688 122.199219 236.472656 122.394531 237.257812 122.632812 C 238.039062 122.871094 238.8125 123.148438 239.566406 123.460938 C 240.324219 123.773438 241.0625 124.125 241.785156 124.507812 C 242.507812 124.894531 243.207031 125.316406 243.890625 125.769531 C 244.570312 126.226562 245.226562 126.710938 245.859375 127.230469 C 246.492188 127.75 247.097656 128.300781 247.675781 128.878906 C 248.257812 129.457031 248.804688 130.066406 249.324219 130.699219 C 249.84375 131.332031 250.332031 131.988281 250.785156 132.667969 C 251.242188 133.347656 251.660156 134.050781 252.046875 134.773438 C 252.433594 135.496094 252.785156 136.234375 253.097656 136.992188 C 253.410156 137.746094 253.6875 138.515625 253.921875 139.300781 C 254.160156 140.082031 254.359375 140.878906 254.519531 141.679688 C 254.679688 142.484375 254.800781 143.292969 254.878906 144.105469 C 254.960938 144.921875 255 145.738281 255 146.558594 Z M 255 146.558594 " fill-opacity="1" fill-rule="nonzero"/></g><g clip-path="url(#d1e607237e)"><path fill="#ff69b4" d="M 257.453125 146.414062 C 257.453125 161.125 245.535156 173.042969 230.832031 173.042969 C 222.59375 173.042969 215.246094 169.308594 210.359375 163.433594 C 206.710938 159.046875 204.449219 153.46875 204.238281 147.378906 C 204.222656 147.0625 204.214844 146.730469 204.214844 146.414062 C 204.214844 131.714844 216.128906 119.792969 230.832031 119.792969 C 233.855469 119.792969 236.753906 120.292969 239.457031 121.226562 C 245.070312 123.144531 249.828125 126.882812 253.042969 131.746094 C 255.828125 135.949219 257.453125 140.996094 257.453125 146.414062 " fill-opacity="1" fill-rule="nonzero"/></g></svg>