<svg xmlns="http://www.w3.org/2000/svg" xmlns:xlink="http://www.w3.org/1999/xlink" width="500" zoomAndPan="magnify" viewBox="0 0 375 374.999991" height="500" preserveAspectRatio="xMidYMid meet" version="1.0"><defs><g/><clipPath id="e34b9dee19"><path d="M 172.453125 121.539062 L 199.453125 121.539062 L 199.453125 148.539062 L 172.453125 148.539062 Z M 172.453125 121.539062 " clip-rule="nonzero"/></clipPath><clipPath id="d86122d101"><path d="M 20.058594 188.308594 L 303.855469 188.308594 L 303.855469 300.808594 L 20.058594 300.808594 Z M 20.058594 188.308594 " clip-rule="nonzero"/></clipPath><clipPath id="7bef2fb064"><path d="M 32.058594 200.308594 L 315.855469 200.308594 L 315.855469 312.808594 L 32.058594 312.808594 Z M 32.058594 200.308594 " clip-rule="nonzero"/></clipPath></defs><g clip-path="url(#e34b9dee19)"><path fill="#ff69b4" d="M 199.449219 135.035156 C 199.449219 142.496094 193.410156 148.539062 185.953125 148.539062 C 181.777344 148.539062 178.050781 146.644531 175.574219 143.664062 C 173.722656 141.441406 172.578125 138.613281 172.46875 135.523438 C 172.460938 135.363281 172.457031 135.195312 172.457031 135.035156 C 172.457031 127.582031 178.5 121.539062 185.953125 121.539062 C 187.488281 121.539062 188.957031 121.792969 190.328125 122.265625 C 193.171875 123.238281 195.585938 125.132812 197.214844 127.597656 C 198.628906 129.730469 199.449219 132.289062 199.449219 135.035156 " fill-opacity="1" fill-rule="nonzero"/></g><g fill="#ff69b4" fill-opacity="1"><g transform="translate(172.454247, 218.527925)"><g><path d="M 2.570312 -55.769531 L 2.570312 -0.0859375 L 24.929688 -0.0859375 L 24.929688 -55.769531 Z M 2.570312 -55.769531 "/></g></g></g><g fill="#ff69b4" fill-opacity="1"><g transform="translate(205.905783, 189.207036)"><g><path d="M -2.207031 9.359375 L 15.894531 9.359375 C 31.085938 -12.628906 31.261719 -42.035156 15.542969 -63.496094 L -2.5625 -63.496094 C 12.277344 -40.625 12.628906 -13.6875 -2.207031 9.359375 Z M -2.207031 9.359375 "/></g></g></g><g clip-path="url(#d86122d101)"><path fill="#ffffff" d="M 20.058594 188.308594 L 303.066406 188.308594 L 303.066406 300.808594 L 20.058594 300.808594 Z M 20.058594 188.308594 " fill-opacity="1" fill-rule="nonzero"/></g><g clip-path="url(#7bef2fb064)"><path fill="#ffffff" d="M 32.058594 200.308594 L 315.066406 200.308594 L 315.066406 312.808594 L 32.058594 312.808594 Z M 32.058594 200.308594 " fill-opacity="1" fill-rule="nonzero"/></g></svg>