<svg xmlns="http://www.w3.org/2000/svg" xmlns:xlink="http://www.w3.org/1999/xlink" width="500" zoomAndPan="magnify" viewBox="0 0 375 374.999991" height="500" preserveAspectRatio="xMidYMid meet" version="1.0"><defs><g/><clipPath id="267a95cd70"><path d="M 210.34375 120.335938 L 237.34375 120.335938 L 237.34375 147.335938 L 210.34375 147.335938 Z M 210.34375 120.335938 " clip-rule="nonzero"/></clipPath><clipPath id="195352a125"><path d="M 57.949219 187.105469 L 341 187.105469 L 341 299.605469 L 57.949219 299.605469 Z M 57.949219 187.105469 " clip-rule="nonzero"/></clipPath></defs><g fill="#000000" fill-opacity="1"><g transform="translate(63.458607, 187.3176)"><g><path d="M 26.378906 -70.957031 C 14.824219 -70.957031 2.070312 -69.324219 1.417969 -54.609375 C 0.328125 -31.9375 35.96875 -36.515625 37.167969 -14.605469 C 36.839844 -4.90625 30.191406 -3.050781 21.800781 -2.832031 L 21.472656 -4.03125 C 25.394531 -6.210938 28.011719 -9.265625 27.902344 -15.585938 C 27.683594 -34.117188 3.050781 -30.847656 3.050781 -30.847656 L 3.160156 -0.109375 L 44.035156 -0.109375 C 56.898438 -0.109375 62.238281 -8.066406 63.546875 -15.914062 C 65.070312 -25.070312 60.382812 -31.828125 50.355469 -37.386719 C 42.945312 -41.527344 29.210938 -46.761719 29.539062 -57.113281 C 29.757812 -66.160156 38.476562 -68.996094 46.324219 -68.558594 L 46.542969 -67.359375 C 42.726562 -65.289062 39.785156 -62.566406 39.894531 -56.351562 C 40.109375 -38.804688 63.4375 -41.964844 63.4375 -41.964844 L 63.328125 -70.957031 Z M 26.378906 -70.957031 "/></g></g></g><g fill="#000000" fill-opacity="1"><g transform="translate(128.966422, 185.47824)"><g><path d="M 20.351562 -0.0742188 L 20.351562 -23.660156 C 20.351562 -30.417969 28.730469 -30.417969 28.730469 -23.585938 L 28.730469 -0.0742188 L 46.660156 -0.0742188 L 46.660156 -24.246094 C 46.660156 -30.125 54.8125 -30.492188 54.8125 -24.246094 L 54.8125 -0.0742188 L 72.742188 -0.0742188 L 72.742188 -27.699219 C 72.742188 -36.371094 72.300781 -47.832031 60.03125 -48.128906 C 50.480469 -48.273438 47.613281 -39.605469 47.394531 -31.15625 L 46.660156 -31.15625 C 46.363281 -39.089844 44.601562 -47.832031 33.875 -48.128906 C 24.394531 -48.273438 21.457031 -39.605469 21.308594 -31.15625 L 20.351562 -31.15625 L 20.351562 -47.832031 L 2.058594 -47.832031 L 2.058594 -0.0742188 Z M 20.351562 -0.0742188 "/></g></g></g><g clip-path="url(#267a95cd70)"><path fill="#ff69b4" d="M 237.34375 133.832031 C 237.34375 141.292969 231.300781 147.335938 223.84375 147.335938 C 219.667969 147.335938 215.941406 145.441406 213.464844 142.460938 C 211.613281 140.238281 210.46875 137.410156 210.359375 134.320312 C 210.355469 134.160156 210.347656 133.992188 210.347656 133.832031 C 210.347656 126.378906 216.390625 120.335938 223.84375 120.335938 C 225.378906 120.335938 226.847656 120.589844 228.21875 121.0625 C 231.0625 122.035156 233.476562 123.929688 235.105469 126.394531 C 236.519531 128.527344 237.34375 131.085938 237.34375 133.832031 " fill-opacity="1" fill-rule="nonzero"/></g><g fill="#ff69b4" fill-opacity="1"><g transform="translate(210.345195, 217.32504)"><g><path d="M 2.570312 -55.769531 L 2.570312 -0.0859375 L 24.929688 -0.0859375 L 24.929688 -55.769531 Z M 2.570312 -55.769531 "/></g></g></g><g fill="#ff69b4" fill-opacity="1"><g transform="translate(243.796731, 188.004144)"><g><path d="M -2.207031 9.359375 L 15.894531 9.359375 C 31.085938 -12.628906 31.261719 -42.035156 15.542969 -63.496094 L -2.5625 -63.496094 C 12.277344 -40.625 12.628906 -13.6875 -2.207031 9.359375 Z M -2.207031 9.359375 "/></g></g></g><g fill="#000000" fill-opacity="1"><g transform="translate(274.183434, 185.47824)"><g><path d="M 41.441406 -27.113281 L 41.515625 -47.832031 L 14.695312 -47.832031 C 0 -47.832031 -2.277344 -28.289062 11.09375 -24.175781 C -2.644531 -20.058594 -1.910156 -0.0742188 14.695312 -0.0742188 L 41.441406 -0.0742188 L 41.515625 -20.941406 C 37.839844 -20.941406 24.910156 -21.675781 25.054688 -10.507812 C 25.054688 -6.761719 26.597656 -4.335938 28.804688 -2.792969 L 28.4375 -1.984375 C 23.21875 -3.160156 19.914062 -8.597656 19.984375 -13.8125 C 20.132812 -19.914062 25.570312 -23.292969 31.667969 -23.4375 L 31.667969 -24.910156 C 24.175781 -25.128906 19.839844 -31.300781 20.207031 -36.960938 C 20.425781 -41.222656 23.585938 -45.113281 28.363281 -45.921875 L 28.730469 -45.113281 C 26.523438 -43.570312 24.980469 -41.148438 25.054688 -37.398438 C 25.203125 -24.910156 41.441406 -27.113281 41.441406 -27.113281 Z M 41.441406 -27.113281 "/></g></g></g><g clip-path="url(#195352a125)"><path fill="#ffffff" d="M 57.949219 187.105469 L 340.957031 187.105469 L 340.957031 299.605469 L 57.949219 299.605469 Z M 57.949219 187.105469 " fill-opacity="1" fill-rule="nonzero"/></g></svg>